<svg xmlns="http://www.w3.org/2000/svg" width="48" height="48" viewBox="0 0 48 48"><g stroke="#000" transform="translate(21 -1004.362)"><circle cx="3" cy="1028.362" r="24" fill="#1d67b1" stroke="none"/><path fill="#fff" stroke="none" style="line-height:normal;text-indent:0;text-align:start;text-decoration-line:none;text-decoration-style:solid;text-decoration-color:#000;text-transform:none;block-progression:tb;isolation:auto;mix-blend-mode:normal" d="m 8.7695353,1015.3662 a 0.50004991,0.50004991 0 0 0 -0.01758,0 l 0,0.014 a 0.50004991,0.50004991 0 0 0 -0.07227,0.01 0.50005,0.50005 0 0 0 -0.111322,-0.012 l -11.263671,0 a 0.50005,0.50005 0 0 0 -0.05859,0 0.50004991,0.50004991 0 0 0 -0.06446,0 l 0,0 a 0.50004991,0.50004991 0 0 0 -0.07031,0.012 0.50004991,0.50004991 0 0 0 -0.03516,0.01 0.50004991,0.50004991 0 0 0 -0.01367,0 0.50004991,0.50004991 0 0 0 -0.02539,0.01 0.50004991,0.50004991 0 0 0 -0.138671,0.072 l -3.402346,1.9648 c -1.431892,0.8267 -1.89826,2.6531 -1.101563,4.0899 l 7.50000005,13.5254 a 0.50004991,0.50004991 0 0 0 0.103516,0.1425 l 0,2.5567 c -0.614118,0.7035 -1.00000005,1.6117 -1.00000005,2.6152 0,2.2032 1.79678305,4 4,4 2.203217,0 4,-1.7968 4,-4 0,-1.0035 -0.385882,-1.9117 -1,-2.6152 l 0,-2.5684 a 0.50004991,0.50004991 0 0 0 0.107422,-0.1328 l 7.4999997,-13.5254 c 0.796697,-1.4368 0.330329,-3.2631 -1.101563,-4.0898 l -3.3984367,-1.9629 -0.0039,0 a 0.50004991,0.50004991 0 0 0 -0.152343,-0.078 0.50004991,0.50004991 0 0 0 -0.02539,-0.01 0.50004991,0.50004991 0 0 0 -0.02148,-0.01 0.50004991,0.50004991 0 0 0 -0.02734,-0.01 0.50004991,0.50004991 0 0 0 -0.0059,0 0.50004991,0.50004991 0 0 0 -0.09961,-0.012 z m -0.138672,1.0098 c 0.704804,0.4302 0.971279,0.8355 1.039063,1.2266 0.07107,0.41 -0.07392,0.8964 -0.394531,1.4375 l -0.201172,0.3398 -12.148438,0 -0.201172,-0.3379 c -0.320608,-0.5411 -0.463646,-1.0275 -0.392578,-1.4375 0.06765,-0.3903 0.331753,-0.7954 1.033203,-1.2246 l 11.203125,0 a 0.50005,0.50005 0 0 0 0.0625,0 z m -13.263672,1.1484 c -0.09228,0.7148 0.12927,1.405 0.498047,2.0274 l 6.552735,11.0586 -1.99023495,3.3594 -7.16015605,-12.9141 c -0.546586,-0.9858 -0.238499,-2.1819 0.728516,-2.7402 l 1.371093,-0.7911 z m 15.2656247,0 1.371094,0.791 c 0.967015,0.5583 1.275103,1.7544 0.728516,2.7402 l -7.3574217,13.2676 -3.992188,0 8.7519537,-14.7715 c 0.368777,-0.6224 0.590326,-1.3125 0.498046,-2.0273 z m -13.1152337,2.8535 10.962891,0 -5.480469,9.252 -5.482422,-9.252 z m 3.48046905,15 3.99999995,0 0,1.5567 c -0.590898,-0.3451 -1.268703,-0.5567 -2,-0.5567 -0.731297,0 -1.409102,0.2116 -1.99999995,0.5567 l 0,-1.5567 z m 1.99999995,2 c 1.662776,0 3,1.3373 3,3 0,1.6628 -1.337224,3 -3,3 -1.662777,0 -2.99999995,-1.3372 -2.99999995,-3 0,-0.7882 0.307557,-1.499 0.800781,-2.0332 a 0.50005,0.50005 0 0 0 0.117188,-0.125 c 0.53896395,-0.5203 1.26973595,-0.8418 2.08203095,-0.8418 z m -0.07031,1.0332 c -0.781897,0 -1.427734,0.6457 -1.427734,1.4277 a 0.50005,0.50005 0 1 0 1,0 c 0,-0.2453 0.182452,-0.4277 0.427734,-0.4277 0.245283,0 0.425782,0.1824 0.425782,0.4277 l 0,0.039 c 0,0.3019 -0.151375,0.4819 -0.484375,0.7402 -0.333001,0.2583 -0.808798,0.5098 -1.214844,0.9004 a 0.50005,0.50005 0 0 0 0.3457,0.8594 l 2,0 a 0.50005,0.50005 0 1 0 0,-1 l -0.488281,0 c 0.417177,-0.3313 0.840943,-0.8182 0.841797,-1.498 l 0,-0.037 c 0,-0.782 -0.643884,-1.4278 -1.425782,-1.4278 l 0,0 z" color="#000" font-family="sans-serif" font-weight="400" overflow="visible" white-space="normal"/></g></svg>