<svg xmlns="http://www.w3.org/2000/svg" enable-background="new 0 0 50 50" viewBox="0 0 50 50"><path fill="#D75548" d="M36.8339,42.304l-3.0014-0.3827l-1.8532,2.3871l-5.4588-13.1738
			c1.8129-0.1813,3.5352-0.6748,5.0963-1.4402L36.8339,42.304z"/><polygon fill="#EFEFED" points="35.958 42.193 35.525 42.133 30.559 30.157 30.922 30.006"/><path fill="#EFEFED" d="M32.7751,43.281l-0.2619,0.3324l-5.2071-12.5695c0.1309-0.0201,0.2518-0.0403,0.3726-0.0705
					L32.7751,43.281z"/><path fill="#D75548" d="M23.4788,31.1345L18.02,44.3083l-0.5338-0.695l-0.272-0.3324v-0.0101l-1.0474-1.3496l-1.7021,0.2115
			l-0.4231,0.0604l-0.8762,0.1108l5.2171-12.6097c0.2317,0.1108,0.4633,0.2115,0.695,0.3122
			c0.1209,0.0503,0.2418,0.1007,0.3525,0.141c0.9266,0.3727,1.8834,0.6547,2.8906,0.8259c0.1209,0.0302,0.2417,0.0504,0.3726,0.0705
			C22.9451,31.0842,23.207,31.1144,23.4788,31.1345z"/><path fill="#EFEFED" d="M19.4301 30.1474l-4.9653 11.9854-.4231.0604 5.0359-12.1867C19.1984 30.0568 19.3193 30.1072 19.4301 30.1474zM22.6933 31.0438l-5.2071 12.5695-.272-.3324v-.0101l5.1064-12.2976C22.4415 31.0036 22.5623 31.0237 22.6933 31.0438z"/><path fill="#D75548" d="M28.5248,30.8021v18.1996l-1.0273-0.5842l-0.5036-0.2921l-1.9942-1.1381l-2.0043,1.1482l-0.5036,0.282
				l-1.0173,0.5842V30.8021c0.3324,0.0806,0.6749,0.1511,1.0173,0.2014c0.1612,0.0302,0.3324,0.0604,0.5036,0.0705
				c0.6547,0.1007,1.3194,0.141,2.0043,0.141c0.6748,0,1.3496-0.0403,1.9942-0.1309c0.1712-0.0202,0.3424-0.0504,0.5036-0.0806
				C27.85,30.9532,28.1925,30.8827,28.5248,30.8021z"/><path fill="#D75548" d="M28.5248,30.8021v18.1996l-1.0273-0.5842l-0.5036-0.2921l-1.9942-1.1381l-2.0043,1.1482l-0.5036,0.282
				l-1.0173,0.5842V30.8021c0.3324,0.0806,0.6749,0.1511,1.0173,0.2014c0.1612,0.0302,0.3324,0.0604,0.5036,0.0705
				c0.6547,0.1007,1.3194,0.141,2.0043,0.141c0.6748,0,1.3496-0.0403,1.9942-0.1309c0.1712-0.0202,0.3424-0.0504,0.5036-0.0806
				C27.85,30.9532,28.1925,30.8827,28.5248,30.8021z"/><path fill="#EFEFED" d="M27.4975 31.0036v17.414l-.5036-.2921V31.0842C27.1651 31.064 27.3363 31.0338 27.4975 31.0036zM22.9954 31.0741v17.0615l-.5036.282v-17.414C22.653 31.0338 22.8242 31.064 22.9954 31.0741z"/><circle cx="24.999" cy="16.111" r="15.106" fill="#E9715F"/><path fill="#D75548" d="M25.86 5.3983c-.28-.03-.57-.04-.86-.04h-.05l-.88-4.32c.29-.03.58-.04.88-.04L25.86 5.3983zM25.84 26.8183l-.9 4.39c-.3 0-.6-.01-.89-.03l.89-4.32H25C25.28 26.8583 25.56 26.8483 25.84 26.8183zM21.7 5.8783c-.29.09-.57.2-.84.31l-2.48-3.66c.26-.1299.53-.25.8-.36L21.7 5.8783zM30.74 30.0883c-.28.11-.56.22-.84.31l-.83-4.34c.28-.12.56-.24.82-.38L30.74 30.0883zM18.04 7.9183c-.23.2-.45.4-.66.61l-3.69-2.4399c.2-.22.4-.4301.61-.64L18.04 7.9183zM35.66 26.8083c-.21.21-.43.42-.66.6l-2.43-3.67c.21-.21.42-.44.62-.67L35.66 26.8083zM15.44 11.1883c-.14.27-.2599.54-.38.82l-4.34-.83c.09-.28.2-.56.31-.83L15.44 11.1883zM38.95 21.9082v.01c-.11.28-.24.53-.36.8l-3.66-2.47c.11-.28.21-.56.31-.85L38.95 21.9082zM14.29 15.2182c-.03.29-.04.59-.04.89 0 .01 0 .01 0 .02l-4.3199.89c-.02-.3-.04-.59-.04-.89L14.29 15.2182zM40.11 16.1283c0 .3-.02.59-.04.89l-4.32-.89c0-.01 0-.01 0-.02 0-.3-.0099-.6-.04-.89L40.11 16.1283zM15.07 20.2383l-3.67 2.48c-.11-.27-.24-.52-.36-.8v-.01l3.72-2.52C14.85 19.6783 14.96 19.9583 15.07 20.2383zM39.28 11.1783l-4.34.83c-.12-.28-.24-.55-.38-.82l4.41-.84C39.08 10.6183 39.19 10.8983 39.28 11.1783zM17.42 23.7283l-2.42 3.68c-.23-.18-.45-.39-.66-.6l2.47-3.74C17.01 23.2983 17.21 23.5183 17.42 23.7283zM36.31 6.0883l-3.69 2.4399c-.21-.21-.43-.41-.66-.61l3.74-2.47C35.91 5.6582 36.11 5.8683 36.31 6.0883zM20.93 26.0583l-.83 4.34c-.28-.09-.56-.2-.84-.31l.85-4.41C20.37 25.8183 20.65 25.9383 20.93 26.0583zM31.62 2.5282l-2.48 3.66c-.27-.11-.55-.22-.84-.31l2.5099-3.71C31.09 2.2683 31.36 2.3983 31.62 2.5282z"/><path fill="#FFF" d="M35.74,15.6582c0-0.14-0.01-0.27-0.03-0.4c0.01-0.01,0-0.03,0-0.04c-0.09-1.1299-0.36-2.21-0.77-3.21
				c-0.12-0.28-0.25-0.55-0.38-0.82c-0.5099-0.98-1.16-1.88-1.94-2.66c-0.0099,0-0.0099-0.0099-0.02-0.02
				c-0.2-0.2-0.4-0.38-0.62-0.57c-0.01-0.01-0.02-0.01-0.02-0.02c-0.84-0.71-1.79-1.3-2.82-1.73c-0.27-0.12-0.56-0.22-0.84-0.31
				c-0.78-0.25-1.59-0.42-2.44-0.48c-0.14-0.01-0.28-0.03-0.43-0.03c-0.14-0.01-0.28-0.01-0.4301-0.01h-0.05
				c-1.13,0.01-2.22,0.19-3.25,0.52c-0.28,0.09-0.57,0.19-0.84,0.31c-1.03,0.43-1.98,1.02-2.82,1.73c0,0.01-0.01,0.01-0.02,0.02
				c-0.22,0.19-0.42,0.37-0.62,0.57c-0.01,0.01-0.01,0.02-0.02,0.02c-0.78,0.78-1.43,1.6801-1.94,2.66
				c-0.13,0.27-0.2599,0.54-0.38,0.82c-0.41,1-0.68,2.08-0.77,3.21c0,0.01-0.01,0.03,0,0.04c-0.02,0.13-0.03,0.27-0.03,0.4
				c-0.01,0.15-0.01,0.3-0.01,0.45c0,0.01,0,0.01,0,0.02c0,1.14,0.1801,2.23,0.51,3.26c0.1,0.29,0.2,0.58,0.31,0.85
				c0.43,1.04,1.02,1.99,1.74,2.83c0.01,0.01,0.01,0.01,0.01,0.01c0.19,0.22,0.38,0.43,0.58,0.63c0.01,0.0099,0.01,0.0099,0.02,0.02
				c0.79,0.78,1.69,1.44,2.69,1.95c0.27,0.14,0.54,0.27,0.82,0.38c1.23,0.51,2.59,0.79,4.0099,0.8H25c0.14,0,0.28,0,0.42-0.01
				c0.14,0,0.28-0.02,0.42-0.03c1.14-0.08,2.22-0.35,3.23-0.76c0.28-0.11,0.55-0.24,0.82-0.38c0.99-0.51,1.9-1.17,2.68-1.94
				c0.01-0.01,0.02-0.02,0.03-0.03c0.2-0.2,0.39-0.41,0.58-0.63c0,0,0,0,0.0099-0.01c0.71-0.84,1.3-1.79,1.7401-2.82
				c0.11-0.27,0.21-0.56,0.31-0.85c0.33-1.03,0.5099-2.13,0.5099-3.27c0-0.01,0-0.01,0-0.02
				C35.75,15.9583,35.75,15.8083,35.74,15.6582z M25,25.6983c-5.29,0-9.59-4.3-9.59-9.59c0-5.28,4.3-9.58,9.59-9.58
				c5.28,0,9.58,4.3,9.58,9.58C34.58,21.3983,30.28,25.6983,25,25.6983z"/><polygon fill="#FFCA67" points="32.359 14.027 26.736 14.027 24.998 8.68 23.261 14.027 17.638 14.027 22.187 17.332 20.45 22.68 24.998 19.375 29.547 22.68 27.81 17.332"/></svg>