<svg xmlns="http://www.w3.org/2000/svg" viewBox="0 0 177.18 177.18"><defs><style>.cls-1,.cls-2{fill:#fff;stroke:#2e7df7;}.cls-1{stroke-width:2px;}</style></defs><title>Engine_Icon</title><g id="Layer_2" data-name="Layer 2"><g id="Layer_1-2" data-name="Layer 1"><g id="Page-1"><g id="Group"><path id="Shape" class="cls-1" d="M141.64,125.41a2.16,2.16,0,0,0,1.73.47,2.24,2.24,0,0,0,1.5-1,66.69,66.69,0,0,0,9.2-22.19,2.21,2.21,0,0,0-.37-1.76,2.18,2.18,0,0,0-1.55-.89,11.54,11.54,0,0,1,0-22.94,2.2,2.2,0,0,0,1.92-2.65,66.61,66.61,0,0,0-9.2-22.19,2.2,2.2,0,0,0-3.23-.52,11.53,11.53,0,0,1-16.22-16.22,2.2,2.2,0,0,0-.52-3.23,66.28,66.28,0,0,0-22.19-9.2A2.2,2.2,0,0,0,100.06,25a11.54,11.54,0,0,1-22.94,0,2.2,2.2,0,0,0-2.65-1.92,66.19,66.19,0,0,0-22.19,9.2,2.2,2.2,0,0,0-.52,3.23A11.53,11.53,0,0,1,35.54,51.76a2.2,2.2,0,0,0-3.23.52,66.37,66.37,0,0,0-9.2,22.19A2.2,2.2,0,0,0,25,77.12a11.54,11.54,0,0,1,0,22.94,2.18,2.18,0,0,0-1.55.89,2.21,2.21,0,0,0-.37,1.76,66.37,66.37,0,0,0,9.2,22.19,2.21,2.21,0,0,0,1.5,1,2.16,2.16,0,0,0,1.73-.47,11.54,11.54,0,0,1,16.22,16.23,2.2,2.2,0,0,0,.52,3.23,66.61,66.61,0,0,0,22.19,9.2,2.2,2.2,0,0,0,2.65-1.92,11.54,11.54,0,0,1,22.94,0,2.19,2.19,0,0,0,.9,1.55,2.14,2.14,0,0,0,1.29.42,2.4,2.4,0,0,0,.46-.05,66.69,66.69,0,0,0,22.19-9.2,2.2,2.2,0,0,0,.52-3.23,11.54,11.54,0,0,1,16.22-16.23Zm-21,17a61.67,61.67,0,0,1-16.6,6.88,15.95,15.95,0,0,0-30.8,0,61.57,61.57,0,0,1-16.61-6.89,15.94,15.94,0,0,0-21.77-21.77A62.15,62.15,0,0,1,27.92,104a15.94,15.94,0,0,0,0-30.8,62,62,0,0,1,6.89-16.6A15.94,15.94,0,0,0,56.58,34.81a62.22,62.22,0,0,1,16.61-6.89,15.94,15.94,0,0,0,30.8,0,62,62,0,0,1,16.6,6.89,15.94,15.94,0,0,0,21.77,21.77,61.57,61.57,0,0,1,6.89,16.61,15.95,15.95,0,0,0,0,30.8,61.38,61.38,0,0,1-6.89,16.6,15.94,15.94,0,0,0-21.77,21.78Z"/><path id="Path" class="cls-2" d="M86.39,2.7V18.54a2.2,2.2,0,1,0,4.4,0V2.7a2.2,2.2,0,1,0-4.4,0Z"/><path class="cls-2" d="M21.9,21.9a2.2,2.2,0,0,0,0,3.11l11.2,11.2a2.2,2.2,0,0,0,3.12-3.11L25,21.9A2.2,2.2,0,0,0,21.9,21.9Z"/><path class="cls-2" d="M2.7,90.79H18.54a2.2,2.2,0,0,0,0-4.4H2.7a2.2,2.2,0,1,0,0,4.4Z"/><path class="cls-2" d="M23.46,155.92a2.18,2.18,0,0,0,1.55-.64l11.21-11.21A2.2,2.2,0,1,0,33.1,141l-11.2,11.2a2.21,2.21,0,0,0,0,3.12A2.19,2.19,0,0,0,23.46,155.92Z"/><path class="cls-2" d="M86.39,158.63v15.85a2.2,2.2,0,0,0,4.4,0V158.63a2.2,2.2,0,0,0-4.4,0Z"/><path class="cls-2" d="M152.16,155.28a2.22,2.22,0,0,0,3.12,0,2.23,2.23,0,0,0,0-3.12L144.07,141a2.2,2.2,0,1,0-3.11,3.11Z"/><path class="cls-2" d="M158.63,90.79h15.85a2.2,2.2,0,1,0,0-4.4H158.63a2.2,2.2,0,1,0,0,4.4Z"/><path class="cls-2" d="M155.28,21.9a2.21,2.21,0,0,0-3.12,0L141,33.1a2.2,2.2,0,1,0,3.11,3.11L155.28,25A2.22,2.22,0,0,0,155.28,21.9Z"/><path class="cls-1" d="M88.83,59.93a28.66,28.66,0,1,0,28.66,28.66A28.7,28.7,0,0,0,88.83,59.93ZM74.36,108A14.41,14.41,0,0,1,84.61,94.76a2.2,2.2,0,0,0,.41-4,8.69,8.69,0,1,1,8.07.1A2.23,2.23,0,0,0,91.89,93a2.18,2.18,0,0,0,1.51,1.92A14.46,14.46,0,0,1,103.3,108a24.05,24.05,0,0,1-28.94,0Zm32.87-3.65a18.87,18.87,0,0,0-8.82-12,13.08,13.08,0,1,0-22.33-9.25,13.13,13.13,0,0,0,3.58,9,18.73,18.73,0,0,0-9.23,12.26,24.26,24.26,0,1,1,36.8,0Z"/></g></g></g></g></svg>