<svg xmlns="http://www.w3.org/2000/svg" viewBox="0 0 45.69 88.19"><defs><style>.cls-1{opacity:0.8;}.cls-2{fill:#2e7df7;}</style></defs><title>Asset 1</title><g id="Layer_2" data-name="Layer 2"><g id="Layer_1-2" data-name="Layer 1"><g id="Page-1" class="cls-1"><g id="Group-Copy"><path id="path3035" class="cls-2" d="M8.9,5.39a37.56,37.56,0,0,1,6,4.89,105.92,105.92,0,0,1,9,10.77,61.85,61.85,0,0,1,5.5,9.17,48.11,48.11,0,0,1,3.7,10.48A37.82,37.82,0,0,1,33,58.06c-2,8.25-8.37,15.16-14.75,20.77-5,4.38-11.7,7.25-17.59,9.36L0,86.58c5.84-2.09,12-4.88,16.81-9.08,6.15-5.42,11.83-12,14.28-19.88a33.85,33.85,0,0,0,1.06-15.13,58.28,58.28,0,0,0-4.09-13,41.27,41.27,0,0,0-5-8.68,98.74,98.74,0,0,0-8.13-10A39.19,39.19,0,0,0,8.54,5.7Z"/><path id="path3809" class="cls-2" d="M11.46,83.27a21.47,21.47,0,0,1,7.42-.93c5.22.62,5.7,3.85,5.7,3.85S22.49,87.49,18,87c-5.26-.58-6.54-3.73-6.54-3.73Z"/><path id="path3811" class="cls-2" d="M18.51,78.43A18.26,18.26,0,0,1,25.3,76.8c5.73,0,6.07,3.09,6.07,3.09s-2.07,1.49-6.66,1.43c-5.29-.07-6.2-2.89-6.2-2.89Z"/><path id="path3813" class="cls-2" d="M23.72,73.35s3.32-2.91,6.53-3.71c5.55-1.4,7.39,1.84,7.39,1.84A12.78,12.78,0,0,1,31.12,75C26,76.3,23.72,73.35,23.72,73.35Z"/><path id="path3815" class="cls-2" d="M29.61,65.51a17.57,17.57,0,0,1,6.72-4.18c5.07-1.56,7.45,1.5,7.52,1.58a12.77,12.77,0,0,1-6.41,3.76C31.63,68.2,29.61,65.51,29.61,65.51Z"/><path id="path3817" class="cls-2" d="M32.42,59.28A19,19,0,0,1,39,53.36c3.83-1.85,6.62-.28,6.69-.21a14,14,0,0,1-5.58,5.31c-4.92,2.34-7.69.82-7.69.82Z"/><path id="path3819" class="cls-2" d="M33.27,53.81c1.41-1.33,1.51-4.93,3.53-7.86a8.79,8.79,0,0,1,7.52-3.75s-.5,5.09-4,8.16c-3.73,3.27-7,3.45-7,3.45Z"/><path id="path3821" class="cls-2" d="M33.66,45.24a25.56,25.56,0,0,1,1-7.78,8.59,8.59,0,0,1,6.14-5.58s.72,5-1.86,8.9c-2.73,4.14-5.31,4.46-5.31,4.46Z"/><path id="path3823" class="cls-2" d="M31.78,37a23.1,23.1,0,0,1-.44-7.23c.68-5.32,4.81-6.44,4.89-6.43s1.42,4.92-.6,9.13C33.49,36.9,31.78,37,31.78,37Z"/><path id="path3830" class="cls-2" d="M28.13,28.06a17.53,17.53,0,0,1-1.25-6.91,8.62,8.62,0,0,1,3.67-7s3.22,2.9,1.37,9.14a7.07,7.07,0,0,1-3.79,4.77Z"/><path id="path3832" class="cls-2" d="M23.5,20.75A20.86,20.86,0,0,1,20.77,14a12.89,12.89,0,0,1,1.08-7.21s3.48,1.53,3.35,7.41a14.39,14.39,0,0,1-1.7,6.6Z"/><path id="path3834" class="cls-2" d="M17.81,13.69a14.18,14.18,0,0,1-3.22-6.43C14,4.18,14.6.83,15.18,0c0,0,3.32,2.07,3.57,7.3.18,3.94-.68,5.82-.94,6.39Z"/><path id="path3836" class="cls-2" d="M13.68,9.36S8.82,9.54,6.4,8.13C3.7,6.56,1,3.16.83,2.16A8.12,8.12,0,0,1,9.06,3.7,18.08,18.08,0,0,1,13.68,9.36Z"/><path id="path3838" class="cls-2" d="M19,15.23a11.57,11.57,0,0,0-6.33-3.43,10.28,10.28,0,0,0-7,.85,10.27,10.27,0,0,0,6.84,3.41A12,12,0,0,0,19,15.23Z"/><path id="path3840" class="cls-2" d="M23.84,21.5a11.18,11.18,0,0,0-6.21-3.31c-3.08-.54-4.56,0-6.08.9a8.64,8.64,0,0,0,6.37,3.28c3.93.36,5.34-.62,5.92-.86Z"/><path id="path3842" class="cls-2" d="M28.51,29.69A14.14,14.14,0,0,0,22.7,24.9c-3.83-1.61-5.8-.84-7.45-.22.52.78,2.68,4.07,6.16,5.06a12.28,12.28,0,0,0,7.1,0Z"/><path id="path3844" class="cls-2" d="M31.28,37a14.13,14.13,0,0,0-5.46-5.2c-3.7-1.88-5.72-1.25-7.41-.76.47.83,2.38,4.26,5.79,5.49a12.28,12.28,0,0,0,7.08.47Z"/><path id="path3846" class="cls-2" d="M32.73,45.61c-1.59-2-2.45-4.22-4.89-6.39-3-2.69-5.59-1.83-7.34-1.66a16.42,16.42,0,0,0,4.83,6.11,11.71,11.71,0,0,0,7.4,1.94Z"/><path id="path3848" class="cls-2" d="M32.53,53.58c-1.35-2.2-2-3.92-4.17-6.35-2.69-3-5.23-2.47-7-2.49a16.65,16.65,0,0,0,4.25,6.47A10,10,0,0,0,32.53,53.58Z"/><path id="path3850" class="cls-2" d="M30.8,59.93c-2-3.14-1.77-3.85-3.76-6.44-2.13-2.79-4.83-2.72-6.58-2.88a15.29,15.29,0,0,0,3.61,6.51c2.43,2.55,4.95,2.22,6.73,2.81Z"/><path id="path3852" class="cls-2" d="M27.46,66.15c-1.27-2.77-1.05-4.5-2.23-6.47-1.92-3.21-3.8-3.35-5.55-3.52,1.4,4,1.08,4,2.61,6.46s3.53,2.7,5.17,3.53Z"/><path id="path3854" class="cls-2" d="M23.45,71.38c-.73-3,0-3.87-.77-6-1.27-3.52-3.1-4-4.78-4.51.19,2.36-.1,3.86,1.22,6.42.94,1.81,2.87,3,4.33,4.11Z"/><path id="path3856" class="cls-2" d="M15.34,65.56a11.1,11.1,0,0,0-1,6.1c.69,4.63,3.16,5.33,3.16,5.33s1.41-2.11,1.27-6.39c-.15-4.56-3.46-5-3.46-5Z"/><path id="path3858" class="cls-2" d="M10.07,70.28a12.37,12.37,0,0,0-1.15,6.15c.41,4.22,2.72,5.28,2.72,5.28a12.54,12.54,0,0,0,1.52-5.91c.1-5.43-3.09-5.52-3.09-5.52Z"/></g></g></g></g></svg>