<svg xmlns="http://www.w3.org/2000/svg" viewBox="0 0 45.69 88.19"><defs><style>.cls-1{opacity:0.8;}.cls-2{fill:#2e7df7;}</style></defs><title>Asset 1</title><g id="Layer_2" data-name="Layer 2"><g id="Layer_1-2" data-name="Layer 1"><g id="Page-1" class="cls-1"><g id="Group"><path id="path3035" class="cls-2" d="M36.79,5.39a37.06,37.06,0,0,0-6,4.89,104.73,104.73,0,0,0-9,10.77,62.72,62.72,0,0,0-5.5,9.17,48.11,48.11,0,0,0-3.7,10.48,37.82,37.82,0,0,0,.21,17.36c2,8.25,8.37,15.16,14.75,20.77,5,4.38,11.7,7.25,17.59,9.36l.61-1.61c-5.84-2.09-12-4.88-16.81-9.08-6.15-5.42-11.83-12-14.28-19.88a34,34,0,0,1-1.06-15.13,58.28,58.28,0,0,1,4.09-13,41.72,41.72,0,0,1,5-8.68,97.49,97.49,0,0,1,8.14-10A38.71,38.71,0,0,1,37.15,5.7Z"/><path id="path3809" class="cls-2" d="M34.24,83.27a21.5,21.5,0,0,0-7.43-.93c-5.21.62-5.7,3.85-5.7,3.85s2.1,1.3,6.59.81c5.25-.58,6.54-3.73,6.54-3.73Z"/><path id="path3811" class="cls-2" d="M27.19,78.43a18.34,18.34,0,0,0-6.8-1.63c-5.73,0-6.07,3.09-6.07,3.09s2.07,1.49,6.66,1.43c5.29-.07,6.21-2.89,6.21-2.89Z"/><path id="path3813" class="cls-2" d="M22,73.35s-3.32-2.91-6.52-3.71c-5.56-1.4-7.4,1.84-7.4,1.84A12.84,12.84,0,0,0,14.57,75C19.71,76.3,22,73.35,22,73.35Z"/><path id="path3815" class="cls-2" d="M16.08,65.51a17.48,17.48,0,0,0-6.72-4.18c-5.07-1.56-7.45,1.5-7.52,1.58a12.77,12.77,0,0,0,6.41,3.76C14.06,68.2,16.08,65.51,16.08,65.51Z"/><path id="path3817" class="cls-2" d="M13.28,59.28a19,19,0,0,0-6.59-5.92C2.87,51.51.07,53.08,0,53.15a14,14,0,0,0,5.58,5.31c4.92,2.34,7.7.82,7.7.82Z"/><path id="path3819" class="cls-2" d="M12.43,53.81C11,52.48,10.91,48.88,8.89,46A8.79,8.79,0,0,0,1.38,42.2s.49,5.09,4,8.16c3.73,3.27,7,3.45,7,3.45Z"/><path id="path3821" class="cls-2" d="M12,45.24a25.91,25.91,0,0,0-1-7.78,8.62,8.62,0,0,0-6.14-5.58s-.72,5,1.85,8.9C9.45,44.92,12,45.24,12,45.24Z"/><path id="path3823" class="cls-2" d="M13.92,37a23.26,23.26,0,0,0,.43-7.23c-.67-5.32-4.81-6.44-4.89-6.43s-1.41,4.92.6,9.13C12.21,36.9,13.92,37,13.92,37Z"/><path id="path3830" class="cls-2" d="M17.56,28.06a17.53,17.53,0,0,0,1.25-6.91,8.59,8.59,0,0,0-3.67-7s-3.22,2.9-1.37,9.14a7.07,7.07,0,0,0,3.79,4.77Z"/><path id="path3832" class="cls-2" d="M22.19,20.75A20.86,20.86,0,0,0,24.92,14a13,13,0,0,0-1.07-7.21s-3.49,1.53-3.35,7.41a14.31,14.31,0,0,0,1.69,6.6Z"/><path id="path3834" class="cls-2" d="M27.88,13.69A14.07,14.07,0,0,0,31.1,7.26c.55-3.08,0-6.43-.58-7.26,0,0-3.33,2.07-3.57,7.3-.19,3.94.67,5.82.93,6.39Z"/><path id="path3836" class="cls-2" d="M32,9.36s4.87.18,7.28-1.23c2.71-1.57,5.36-5,5.57-6A8.12,8.12,0,0,0,36.63,3.7,18.25,18.25,0,0,0,32,9.36Z"/><path id="path3838" class="cls-2" d="M26.66,15.23A11.52,11.52,0,0,1,33,11.8a10.31,10.31,0,0,1,7,.85,10.3,10.3,0,0,1-6.84,3.41,12,12,0,0,1-6.45-.83Z"/><path id="path3840" class="cls-2" d="M21.85,21.5a11.18,11.18,0,0,1,6.21-3.31c3.08-.54,4.56,0,6.08.9a8.61,8.61,0,0,1-6.37,3.28c-3.93.36-5.34-.62-5.92-.86Z"/><path id="path3842" class="cls-2" d="M17.19,29.69A14.07,14.07,0,0,1,23,24.9c3.84-1.61,5.81-.84,7.45-.22-.52.78-2.67,4.07-6.16,5.06a12.25,12.25,0,0,1-7.09,0Z"/><path id="path3844" class="cls-2" d="M14.42,37a14.06,14.06,0,0,1,5.45-5.2c3.71-1.88,5.72-1.25,7.41-.76-.47.83-2.38,4.26-5.78,5.49a12.27,12.27,0,0,1-7.08.47Z"/><path id="path3846" class="cls-2" d="M13,45.61c1.59-2,2.45-4.22,4.89-6.39,3-2.69,5.59-1.83,7.34-1.66a16.42,16.42,0,0,1-4.83,6.11A11.71,11.71,0,0,1,13,45.61Z"/><path id="path3848" class="cls-2" d="M13.16,53.58c1.35-2.2,2-3.92,4.17-6.35,2.69-3,5.24-2.47,7-2.49a16.81,16.81,0,0,1-4.26,6.47A10,10,0,0,1,13.16,53.58Z"/><path id="path3850" class="cls-2" d="M14.89,59.93c2-3.14,1.78-3.85,3.76-6.44,2.14-2.79,4.83-2.72,6.58-2.88a15.18,15.18,0,0,1-3.61,6.51c-2.42,2.55-4.95,2.22-6.73,2.81Z"/><path id="path3852" class="cls-2" d="M18.23,66.15c1.28-2.77,1.06-4.5,2.23-6.47,1.92-3.21,3.8-3.35,5.55-3.52-1.4,4-1.07,4-2.61,6.46s-3.53,2.7-5.17,3.53Z"/><path id="path3854" class="cls-2" d="M22.25,71.38c.73-3,0-3.87.76-6,1.28-3.52,3.1-4,4.79-4.51-.2,2.36.1,3.86-1.23,6.42-.93,1.81-2.87,3-4.32,4.11Z"/><path id="path3856" class="cls-2" d="M30.35,65.56a11.16,11.16,0,0,1,1,6.1C30.64,76.29,28.16,77,28.16,77s-1.41-2.11-1.27-6.39c.16-4.56,3.46-5,3.46-5Z"/><path id="path3858" class="cls-2" d="M35.63,70.28a12.42,12.42,0,0,1,1.14,6.15c-.41,4.22-2.72,5.28-2.72,5.28a12.54,12.54,0,0,1-1.52-5.91c-.09-5.43,3.1-5.52,3.1-5.52Z"/></g></g></g></g></svg>