<svg xmlns="http://www.w3.org/2000/svg" viewBox="0 0 84.55 84.55"><defs><style>.cls-1{fill:#fff;}</style></defs><title>curriculum</title><g id="Layer_2" data-name="Layer 2"><g id="Layer_1-2" data-name="Layer 1"><g id="Page-1"><g id="Group"><path id="Shape" class="cls-1" d="M11.4,8.55A8.55,8.55,0,1,0,20,0,8.57,8.57,0,0,0,11.4,8.55Zm15.3,0A6.75,6.75,0,1,1,20,1.8,6.76,6.76,0,0,1,26.7,8.55Z"/><rect id="Rectangle" class="cls-1" x="38" y="40.85" width="1.9" height="5.7" transform="translate(-19.49 40.34) rotate(-45)"/><rect class="cls-1" x="34.2" y="38.95" width="1.9" height="1.9" transform="translate(-17.92 36.54) rotate(-45)"/><rect class="cls-1" x="5.7" y="63.65" width="1.9" height="11.4"/><rect class="cls-1" x="5.7" y="58.9" width="1.9" height="1.9"/><path class="cls-1" d="M80.87,13.47H69.07v-.69a4.34,4.34,0,0,0-4.33-4.34h-4.1V6a5,5,0,1,0-10,0V8.44H46.53a4.35,4.35,0,0,0-4.34,4.34v.69H29.87a3.68,3.68,0,0,0-3.67,3.68v4.36H5.82A5.83,5.83,0,0,0,0,27.33V48.4a4.06,4.06,0,0,0,3.84,4.05,4.19,4.19,0,0,0,4.27-4.23V29.62H9.53V79.9a4.65,4.65,0,0,0,9.3,0V57.52h2.79V79.9a4.66,4.66,0,0,0,4.65,4.65h.43a4.66,4.66,0,0,0,4.65-4.65V55.06H43L32.9,72.53l6.35,3.67,12.2-21.14h7.84L71.5,76.2l6.35-3.67L67.76,55.06H80.87a3.68,3.68,0,0,0,3.68-3.68V17.15A3.68,3.68,0,0,0,80.87,13.47ZM52.38,6a3.26,3.26,0,0,1,6.51,0V8.44H52.38V6ZM44,12.78a2.58,2.58,0,0,1,2.58-2.58H64.74a2.58,2.58,0,0,1,2.58,2.58v.69H44ZM29.6,29.24V79.9a2.9,2.9,0,0,1-2.9,2.89h-.43a2.89,2.89,0,0,1-2.9-2.89V55.76h-6.3V79.9a2.9,2.9,0,0,1-5.79,0v-52H6.36V48.22A2.44,2.44,0,0,1,4,50.7a2.33,2.33,0,0,1-2.28-2.3V27.33a4.07,4.07,0,0,1,4.06-4.07H28a5.06,5.06,0,0,1,3.6,1.49L47.41,40.56a2.28,2.28,0,0,1,0,3.24,2.35,2.35,0,0,1-3.25,0Zm9,44.56L35.3,71.89,45,55.06h4.42Zm36.84-1.91L72.14,73.8,61.32,55.06h4.41Zm7.34-20.51a1.93,1.93,0,0,1-1.92,1.93H31.35V33.48L42.92,45.05a4.06,4.06,0,0,0,5.73-5.74L32.84,23.51a6.8,6.8,0,0,0-4.84-2H28V17.15a1.92,1.92,0,0,1,1.92-1.92h51a1.92,1.92,0,0,1,1.92,1.92V51.38Z"/><rect class="cls-1" x="79.8" y="21.85" width="1.9" height="1.9"/><path class="cls-1" d="M72.1,25a11.9,11.9,0,0,0-15.82.91h-4v1.78h2.56a11.72,11.72,0,0,0-2,6.6A11.9,11.9,0,0,0,64.24,46.11l2.41,3.29h3.94V47.62h-3L66.37,46A11.89,11.89,0,0,0,76.62,34.26a11.77,11.77,0,0,0-3.21-8.08l2.68-2.55h2.76V21.85H75.37Zm-8.29-.76v9.58l-8,5.39a10,10,0,0,1-1.29-4.92A10.13,10.13,0,0,1,63.81,24.21Zm-7,16.44,7.74-5.24L71.21,42a10.15,10.15,0,0,1-14.35-1.35Zm15.61.09L65.6,33.9V24.21a10.13,10.13,0,0,1,9.24,10A10,10,0,0,1,72.47,40.74Z"/><polygon id="Path" class="cls-1" points="50.35 25.65 47.45 25.65 43.98 21.85 42.75 23.19 46.73 27.55 50.35 27.55 50.35 25.65"/><rect class="cls-1" x="72.2" y="47.5" width="1.9" height="1.9"/><rect class="cls-1" x="42.75" y="67.45" width="9.5" height="1.9" transform="translate(-35.29 77.37) rotate(-61.41)"/><rect class="cls-1" x="50.35" y="60.8" width="1.9" height="1.9" transform="translate(-27.47 77.24) rotate(-61.41)"/><rect class="cls-1" x="63.18" y="64.12" width="1.9" height="8.55" transform="translate(-24.43 37.61) rotate(-27.68)"/><rect class="cls-1" x="59.85" y="61.75" width="1.9" height="1.9" transform="translate(-22.17 35.42) rotate(-27.68)"/><rect class="cls-1" x="44.65" y="49.4" width="13.3" height="1.9"/><rect class="cls-1" x="38.95" y="49.4" width="2.85" height="1.9"/><rect class="cls-1" x="76" y="10.45" width="5.7" height="1.9"/><rect class="cls-1" x="72.2" y="10.45" width="1.9" height="1.9"/></g></g></g></g></svg>