<svg xmlns="http://www.w3.org/2000/svg" viewBox="0 0 80.51 89.3"><defs><style>.cls-1{fill:#fff;}</style></defs><title>customer</title><g id="Layer_2" data-name="Layer 2"><g id="Layer_1-2" data-name="Layer 1"><g id="Page-1"><g id="Group"><path id="Shape" class="cls-1" d="M40.26,86a3.68,3.68,0,1,0-3.68-3.67A3.67,3.67,0,0,0,40.26,86Zm0-5.49a1.82,1.82,0,1,1-1.82,1.82A1.82,1.82,0,0,1,40.26,80.49Z"/><rect id="Rectangle" class="cls-1" x="42.94" y="5.01" width="1.41" height="1.86"/><rect class="cls-1" x="36.17" y="5.01" width="5.36" height="1.86"/><path class="cls-1" d="M15,25V67.65H63.74l-1.5,1.5,1.32,1.31,3.74-3.74L63.56,63l-1.32,1.32,1.5,1.5H57.43V49.88H48.15V65.79H43.93V34H34.66V65.79H30.44V42.62H21.16V65.79H16.81V25l1.5,1.5,1.32-1.32-3.75-3.74-3.74,3.74,1.31,1.32ZM50,51.74h5.56V65.79H50V51.74ZM36.52,35.82h5.55v30H36.52ZM23,44.48h5.56V65.79H23Z"/><rect class="cls-1" x="24.87" y="52.11" width="1.86" height="9.34"/><rect class="cls-1" x="24.87" y="48.09" width="1.86" height="2.49"/><rect class="cls-1" x="38.37" y="47.89" width="1.86" height="13.57"/><rect class="cls-1" x="38.37" y="42.91" width="1.86" height="2.79"/><rect class="cls-1" x="51.86" y="56.37" width="1.86" height="6.84"/><rect class="cls-1" x="51.86" y="53.51" width="1.86" height="1.62"/><polygon id="Path" class="cls-1" points="68.85 22.74 70.71 22.74 70.71 14.62 64.7 14.62 64.7 16.48 68.85 16.48 68.85 22.74"/><rect class="cls-1" x="60.07" y="14.62" width="2.72" height="1.86"/><rect class="cls-1" x="29.86" y="69.65" width="20.87" height="1.86"/><rect class="cls-1" x="21.69" y="69.65" width="5.24" height="1.86"/><path class="cls-1" d="M11.94,89.3H68.58a6.84,6.84,0,0,0,6.83-6.84V6.84A6.84,6.84,0,0,0,68.58,0H11.94A6.85,6.85,0,0,0,5.1,6.84V82.46A6.85,6.85,0,0,0,11.94,89.3ZM7,77.18h6.19V75.32H7V11.89H19V10H7V6.84a5,5,0,0,1,5-5H68.58a5,5,0,0,1,5,5V10H23.33v1.86H73.55V75.32H15.08v1.86H73.55v5.28a5,5,0,0,1-5,5H11.94a5,5,0,0,1-5-5V77.18Z"/><rect class="cls-1" x="78.65" y="31.21" width="1.86" height="37.11"/><rect class="cls-1" x="78.65" y="20.98" width="1.86" height="6.29"/><rect class="cls-1" y="59.79" width="1.86" height="8.53"/><rect class="cls-1" y="20.98" width="1.86" height="33.34"/></g></g></g></g></svg>