<svg xmlns="http://www.w3.org/2000/svg" viewBox="0 0 83.51 84.83"><defs><style>.cls-1{fill:#fff;}</style></defs><title>Asset 1</title><g id="Layer_2" data-name="Layer 2"><g id="Layer_1-2" data-name="Layer 1"><g id="Page-1"><g id="Group"><path id="Shape" class="cls-1" d="M78.76,0h-74A4.75,4.75,0,0,0,0,4.75V67a4.75,4.75,0,0,0,4.75,4.75H31L25.58,83.1H17.72v1.73H65.79V83.1H57.93l-5.4-11.33H78.76A4.75,4.75,0,0,0,83.51,67V4.75A4.75,4.75,0,0,0,78.76,0Zm-74,1.74h74a3,3,0,0,1,3,3V60.46H78.29V5.22H5.22V34.05H7V7H76.55v53.5H7V39.27H5.22V60.46H1.74V4.75A3,3,0,0,1,4.75,1.74Zm49.65,78H48.08v1.74h7.15L56,83.1H27.51l3-6.42h8.08V74.94H31.39l1.52-3.17H50.6ZM78.76,70h-74a3,3,0,0,1-3-3V62.2h80V67A3,3,0,0,1,78.76,70Z"/><polygon id="Path" class="cls-1" points="71.33 18.86 73.07 18.86 73.07 10.44 67.17 10.44 67.17 12.18 71.33 12.18 71.33 18.86"/><rect id="Rectangle" class="cls-1" x="60.23" y="10.44" width="3.52" height="1.74"/><rect class="cls-1" x="40.12" y="74.94" width="4.12" height="1.74"/><rect class="cls-1" x="41.61" y="79.73" width="4.44" height="1.74"/><path class="cls-1" d="M22.88,23.37a3.09,3.09,0,0,0,1.64-.49l7.88,7.77a3.05,3.05,0,1,0,5.14.13l7.84-7.86a3,3,0,0,0,.89.15,3.13,3.13,0,0,0,1-.19L55,30.61a3.08,3.08,0,1,0,1.35-1.1L48.7,21.83A3,3,0,0,0,49.31,20a3,3,0,1,0-5.4,1.91L36.25,29.6a3.17,3.17,0,0,0-2.51-.07l-8.08-8a3.11,3.11,0,0,0,.26-1.23,3,3,0,1,0-3,3.05Zm36,9A1.31,1.31,0,1,1,57.54,31,1.31,1.31,0,0,1,58.85,32.32ZM46.27,18.72a1.31,1.31,0,0,1,0,2.61,1.31,1.31,0,1,1,0-2.61ZM35.8,31.35a1.28,1.28,0,0,1,.44,1,1.31,1.31,0,0,1-2.61,0,1.29,1.29,0,0,1,.5-1l-.54-.69.54.69a1.28,1.28,0,0,1,.8-.28A1.25,1.25,0,0,1,35.8,31.35ZM22.88,19a1.31,1.31,0,0,1,0,2.61,1.31,1.31,0,1,1,0-2.61Z"/><path class="cls-1" d="M13.48,15.2V55.67H66.66l-1.48,1.48,1.23,1.23L70,54.79l-3.6-3.58-1.22,1.23,1.49,1.49H60.91V41.29H55V53.93H49.22V33.3h-5.9V53.93h-5.8V40.46h-5.9V53.93H25.83V28.3h-5.9V53.93H15.22V15.2l1.48,1.49,1.23-1.23-3.59-3.6-3.58,3.6L12,16.68ZM56.75,43h2.42v10.9H56.75ZM45.06,35h2.42V53.93H45.06ZM33.36,42.2h2.42V53.93H33.36ZM21.67,30h2.42V53.93H21.67Z"/><rect class="cls-1" x="54.15" y="65.25" width="10.42" height="1.74"/><rect class="cls-1" x="18.94" y="65.25" width="10.42" height="1.74"/><path class="cls-1" d="M41.76,63.07a3,3,0,1,0,3,3.05A3.06,3.06,0,0,0,41.76,63.07Zm0,4.35a1.31,1.31,0,1,1,1.3-1.3A1.31,1.31,0,0,1,41.76,67.42Z"/><rect class="cls-1" x="67.75" y="75.47" width="8" height="1.74"/><rect class="cls-1" x="62.42" y="75.47" width="3.44" height="1.74"/><rect class="cls-1" x="7.76" y="75.47" width="8" height="1.74"/><rect class="cls-1" x="17.65" y="75.47" width="3.44" height="1.74"/></g></g></g></g></svg>