<svg xmlns="http://www.w3.org/2000/svg" viewBox="0 0 92.79 94"><defs><style>.cls-1{fill:#fff;}</style></defs><title>s1</title><g id="Layer_2" data-name="Layer 2"><g id="Layer_1-2" data-name="Layer 1"><g id="Page-1"><g id="Group"><path id="Path" class="cls-1" d="M41.93,25.44A16.51,16.51,0,0,0,19,10.24l.77,1.81a14.38,14.38,0,0,1,5.65-1.15,14.54,14.54,0,0,1,3.15,28.73L29,41.54A16.59,16.59,0,0,0,41.93,25.44Z"/><path class="cls-1" d="M16.2,14.23,15,12.72a16.49,16.49,0,0,0,7.52,29l.35-1.93A14.53,14.53,0,0,1,16.2,14.23Z"/><path class="cls-1" d="M27.81,30.5l.84,1.77a7.54,7.54,0,0,0,3.08-11L30.1,22.35a5.59,5.59,0,0,1-2.29,8.15Z"/><path class="cls-1" d="M25.44,19.85a5.5,5.5,0,0,1,3.12,1l1.1-1.63A7.55,7.55,0,1,0,22.5,32.39l.77-1.8a5.59,5.59,0,0,1,2.17-10.74Z"/><rect id="Rectangle" class="cls-1" x="32.47" y="62.94" width="1.96" height="1.96"/><rect class="cls-1" x="28.56" y="62.94" width="1.96" height="1.96"/><rect class="cls-1" x="24.64" y="62.94" width="1.96" height="1.96"/><rect class="cls-1" x="21.58" y="62.94" width="1.11" height="1.96"/><rect class="cls-1" x="34.43" y="73.27" width="1" height="1.96"/><rect class="cls-1" x="44.85" y="73.27" width="1.96" height="1.96"/><rect class="cls-1" x="40.93" y="73.27" width="1.96" height="1.96"/><rect class="cls-1" x="37.02" y="73.27" width="1.96" height="1.96"/><rect class="cls-1" x="54.29" y="83.31" width="1.96" height="1.96"/><rect class="cls-1" x="58.2" y="83.31" width="1.96" height="1.96"/><rect class="cls-1" x="50.37" y="83.31" width="1.96" height="1.96"/><rect class="cls-1" x="46.81" y="83.31" width="1.6" height="1.96"/><path id="Shape" class="cls-1" d="M88.55,55.56H70.44a4.25,4.25,0,0,0-4.24,4.25V77.87h5.2V92H65V79.45H51.65v-10H39.28V59.07H26.42V27l1.34,1.34,1.39-1.38-3.71-3.71-3.71,3.71,1.39,1.38L24.46,27V61H37.32V71.36H49.69v10H63V92H8.78V44.66a25.27,25.27,0,0,0,13.51,6l.24-1.95A23.24,23.24,0,0,1,8.78,42v-.12H8.66a23.46,23.46,0,1,1,20.59,6.78l.32,1.94A25.47,25.47,0,1,0,6.82,42.76V94H87.6V77.87h5.19V59.81A4.25,4.25,0,0,0,88.55,55.56Zm2.29,20.36H87.6V64.86h-2V92H80.48V84.53h-2V92H73.36V64.86h-2V75.92H68.16V59.81a2.29,2.29,0,0,1,2.28-2.29H88.55a2.3,2.3,0,0,1,2.29,2.29V75.92Z"/><rect class="cls-1" x="78.52" y="78.18" width="1.96" height="3.61"/><path class="cls-1" d="M84.23,51.43A6.69,6.69,0,0,0,79.5,40a6.69,6.69,0,0,0,0,13.38A6.68,6.68,0,0,0,84.23,51.43ZM74.76,46.7A4.73,4.73,0,0,1,79.5,42a4.73,4.73,0,1,1-3.35,8.08A4.75,4.75,0,0,1,74.76,46.7Z"/><rect class="cls-1" x="89.25" y="84.11" width="1.96" height="4.67"/><rect class="cls-1" x="89.25" y="80.8" width="1.96" height="2.06"/><rect class="cls-1" x="67.8" y="84.11" width="1.96" height="4.67"/><rect class="cls-1" x="67.8" y="80.8" width="1.96" height="2.06"/><rect class="cls-1" x="26.09" y="86.34" width="3.12" height="1.96"/><polygon class="cls-1" points="13.54 88.3 23.41 88.3 23.41 86.34 15.49 86.34 15.49 78.54 13.54 78.54 13.54 88.3"/><rect class="cls-1" x="13.54" y="69.66" width="1.96" height="5.71"/></g></g></g></g></svg>