<svg xmlns="http://www.w3.org/2000/svg" viewBox="0 0 94 84.73"><defs><style>.cls-1{fill:#fffefe;}</style></defs><title>s2</title><g id="Layer_2" data-name="Layer 2"><g id="Layer_1-2" data-name="Layer 1"><g id="Page-1"><g id="Group"><path id="Shape" class="cls-1" d="M7.45,72h24.2a7.45,7.45,0,0,0,7.44-7.44v-1H36.77v-21a3.36,3.36,0,0,0-3.35-3.35H5.68a3.36,3.36,0,0,0-3.35,3.35v21H0v1A7.44,7.44,0,0,0,7.45,72Zm21.6-8.42H26V60.82H24v2.76H15.1V60.82h-2v2.76H10.05V60.37a2.59,2.59,0,0,1,2.6-2.6h13.8a2.6,2.6,0,0,1,2.6,2.6v3.21Zm-24.76-21a1.39,1.39,0,0,1,1.39-1.39H33.42a1.4,1.4,0,0,1,1.39,1.39v21H31V60.37a4.56,4.56,0,0,0-4.56-4.56H12.65a4.56,4.56,0,0,0-4.56,4.56v3.21H4.29Zm32.76,23a5.5,5.5,0,0,1-5.4,4.5H7.45a5.48,5.48,0,0,1-5.4-4.5Z"/><path class="cls-1" d="M19.55,53.45A5.52,5.52,0,1,0,14,47.93,5.53,5.53,0,0,0,19.55,53.45Zm0-9.08A3.56,3.56,0,1,1,16,47.93,3.56,3.56,0,0,1,19.55,44.37Z"/><rect id="Rectangle" class="cls-1" x="17.14" y="66.81" width="4.82" height="1.96"/><polygon id="Path" class="cls-1" points="10.44 44.62 10.44 42.66 5.63 42.66 5.63 47.26 7.59 47.26 7.59 44.62 10.44 44.62"/><path class="cls-1" d="M94,64.56v-1H91.67v-21a3.36,3.36,0,0,0-3.35-3.35H60.59a3.36,3.36,0,0,0-3.35,3.35v21H54.91v1A7.44,7.44,0,0,0,62.35,72H86.56A7.45,7.45,0,0,0,94,64.56Zm-10-1h-3.1V60.82h-2v2.76H70V60.82h-2v2.76H65V60.37a2.6,2.6,0,0,1,2.61-2.6h13.8a2.6,2.6,0,0,1,2.6,2.6v3.21Zm-24.76-21a1.39,1.39,0,0,1,1.39-1.39H88.32a1.4,1.4,0,0,1,1.4,1.39v21h-3.8V60.37a4.56,4.56,0,0,0-4.56-4.56H67.56A4.57,4.57,0,0,0,63,60.37v3.21H59.2Zm-.73,25.86A5.53,5.53,0,0,1,57,65.54H92A5.48,5.48,0,0,1,86.56,70H62.35A5.49,5.49,0,0,1,58.47,68.44Z"/><path class="cls-1" d="M74.46,53.45a5.52,5.52,0,1,0-5.53-5.52A5.53,5.53,0,0,0,74.46,53.45Zm0-9.08a3.56,3.56,0,1,1-3.57,3.56A3.56,3.56,0,0,1,74.46,44.37Z"/><rect class="cls-1" x="72.05" y="66.81" width="4.82" height="1.96"/><polygon class="cls-1" points="65.34 44.62 65.34 42.66 60.54 42.66 60.54 47.26 62.49 47.26 62.49 44.62 65.34 44.62"/><path class="cls-1" d="M66.77,25.32v-1H64.44V3.59A3.59,3.59,0,0,0,60.85,0H33.6A3.59,3.59,0,0,0,30,3.59V24.35H27.68v1a7.44,7.44,0,0,0,7.44,7.44h24.2A7.46,7.46,0,0,0,66.77,25.32Zm-10-1h-3.1V21.59h-2v2.75H42.78V21.59h-2v2.75h-3.1v-3.2a2.61,2.61,0,0,1,2.6-2.61h13.8a2.61,2.61,0,0,1,2.61,2.61ZM32,3.59A1.64,1.64,0,0,1,33.6,2H60.85a1.63,1.63,0,0,1,1.63,1.63V24.34H58.69v-3.2a4.58,4.58,0,0,0-4.57-4.57H40.32a4.57,4.57,0,0,0-4.56,4.57v3.2H32V3.59Zm-.72,25.62a5.56,5.56,0,0,1-1.52-2.91h35a5.49,5.49,0,0,1-5.4,4.51H35.12A5.49,5.49,0,0,1,31.24,29.21Z"/><path class="cls-1" d="M47.22,14.22A5.53,5.53,0,1,0,41.7,8.7,5.53,5.53,0,0,0,47.22,14.22Zm0-9.09A3.57,3.57,0,1,1,43.66,8.7,3.57,3.57,0,0,1,47.22,5.13Z"/><rect class="cls-1" x="44.81" y="27.58" width="4.82" height="1.96"/><polygon class="cls-1" points="38.11 5.38 38.11 3.42 33.3 3.42 33.3 8.03 35.26 8.03 35.26 5.38 38.11 5.38"/><path class="cls-1" d="M29.85,80.39q.88.47,1.8.9l.83-1.78c-.58-.26-1.14-.55-1.7-.85Z"/><path class="cls-1" d="M28.11,79.39l1-1.68c-.54-.33-1.07-.67-1.59-1l-1.11,1.61C27,78.67,27.53,79,28.11,79.39Z"/><path class="cls-1" d="M24.79,77.11,26,75.56q-.75-.59-1.47-1.2l-1.28,1.48C23.74,76.28,24.26,76.7,24.79,77.11Z"/><path class="cls-1" d="M35.38,82.79,36,80.93c-.6-.2-1.2-.42-1.78-.66l-.73,1.82C34.12,82.34,34.75,82.57,35.38,82.79Z"/><path class="cls-1" d="M55.23,83.86,54.8,82c-.61.14-1.24.26-1.87.36l.32,1.93C53.92,84.13,54.57,84,55.23,83.86Z"/><path class="cls-1" d="M60.25,80.26,61,82.08c.63-.26,1.24-.52,1.85-.81L62,79.5C61.42,79.77,60.84,80,60.25,80.26Z"/><path class="cls-1" d="M57.18,83.37c.64-.18,1.29-.38,1.92-.59l-.63-1.86c-.6.21-1.21.39-1.82.57Z"/><path class="cls-1" d="M45.24,84.68c.65,0,1.32,0,2,0h0l0-2c-.63,0-1.26,0-1.88,0Z"/><path class="cls-1" d="M68.06,78.27c.55-.38,1.09-.77,1.62-1.18l-1.19-1.55c-.51.39-1,.76-1.54,1.12Z"/><path class="cls-1" d="M49.26,84.68c.67,0,1.34-.09,2-.16l-.21-2c-.63.07-1.26.12-1.9.15Z"/><path class="cls-1" d="M64.62,80.37c.6-.32,1.18-.65,1.75-1l-1-1.67c-.54.33-1.09.64-1.65.94Z"/><path class="cls-1" d="M43.23,84.52l.21-2c-.63-.06-1.26-.15-1.89-.25l-.32,1.93C41.89,84.36,42.56,84.45,43.23,84.52Z"/><path class="cls-1" d="M37.31,83.38c.64.18,1.29.35,1.95.49L39.68,82c-.62-.14-1.24-.29-1.85-.46Z"/><path class="cls-1" d="M71.24,75.82c.51-.44,1-.89,1.49-1.36l-1.36-1.41q-.69.66-1.41,1.29Z"/><path class="cls-1" d="M82.22,36.5c-.21-.63-.43-1.27-.68-1.89l-1.82.71c.23.59.44,1.19.64,1.79Z"/><path class="cls-1" d="M69.62,18.72l-1.19,1.55c.5.39,1,.79,1.48,1.2L71.18,20C70.67,19.55,70.15,19.13,69.62,18.72Z"/><path class="cls-1" d="M68,17.54c-.55-.38-1.12-.74-1.69-1.09l-1,1.67c.55.33,1.08.68,1.6,1Z"/><path class="cls-1" d="M73.92,25.53c.41.49.8,1,1.18,1.49l1.57-1.17c-.4-.54-.82-1.06-1.25-1.58Z"/><path class="cls-1" d="M71.32,22.75c.45.44.9.89,1.34,1.36l1.42-1.34c-.45-.49-.93-1-1.41-1.43Z"/><path class="cls-1" d="M76.21,28.58c.35.52.69,1.06,1,1.61l1.69-1c-.35-.58-.7-1.14-1.08-1.7Z"/><path class="cls-1" d="M78.15,31.85c.29.56.57,1.14.83,1.72l1.78-.81c-.27-.62-.57-1.22-.88-1.81Z"/><path class="cls-1" d="M27,17.2l-.58.39,1.11,1.62.55-.38Z"/><path class="cls-1" d="M16.26,31.93,14.52,31c-.31.6-.6,1.2-.88,1.82l1.79.8C15.69,33.07,16,32.5,16.26,31.93Z"/><path class="cls-1" d="M14.69,35.41l-1.82-.71c-.24.63-.47,1.26-.68,1.9l1.87.6C14.25,36.6,14.47,36,14.69,35.41Z"/><path class="cls-1" d="M20.47,25.6,19,24.35c-.43.51-.84,1-1.24,1.57l1.57,1.18C19.67,26.59,20.06,26.09,20.47,25.6Z"/><path class="cls-1" d="M23.06,22.82,21.71,21.4q-.74.71-1.41,1.44l1.43,1.33C22.16,23.71,22.61,23.26,23.06,22.82Z"/><path class="cls-1" d="M18.19,28.65l-1.63-1.08c-.37.56-.73,1.12-1.07,1.7l1.69,1C17.5,29.72,17.84,29.18,18.19,28.65Z"/><path class="cls-1" d="M24.47,21.53c.48-.41,1-.81,1.48-1.2l-1.2-1.55c-.53.41-1.05.83-1.56,1.27Z"/></g></g></g></g></svg>