<svg xmlns="http://www.w3.org/2000/svg" viewBox="0 0 32.92 32.66"><defs><style>.cls-1{fill:#2e7df7;}.cls-2{fill:#34a853;}.cls-3{fill:#fcc221;}</style></defs><title>Asset 2</title><g id="Layer_2" data-name="Layer 2"><g id="Layer_1-2" data-name="Layer 1"><g id="Page-1"><g id="EdOptimize-Website"><g id="Group-2"><g id="Group-14"><g id="Group"><path id="Shape" class="cls-1" d="M16.5,13.43a2.9,2.9,0,1,0,2.91,2.9A2.9,2.9,0,0,0,16.5,13.43Zm6.35-4.72L24.1,10a.65.65,0,0,1,0,.93l-1,1a7.7,7.7,0,0,1,1.19,2.85h1.46a.69.69,0,0,1,.68.67v1.76a.69.69,0,0,1-.68.68H24.25a7.84,7.84,0,0,1-1.19,2.85l1,1a.66.66,0,0,1,0,.94L22.85,24a.66.66,0,0,1-.94,0l-1-1A7.84,7.84,0,0,1,18,24.11v1.45a.69.69,0,0,1-.68.67H15.56a.69.69,0,0,1-.68-.67V24.11A7.84,7.84,0,0,1,12,22.91l-1,1A.66.66,0,0,1,10,24L8.8,22.71a.66.66,0,0,1,0-.94l1-1a7.69,7.69,0,0,1-1.2-2.85H7.18a.69.69,0,0,1-.67-.68V15.45a.68.68,0,0,1,.67-.67H8.64a7.55,7.55,0,0,1,1.2-2.85l-1-1a.65.65,0,0,1,0-.93L10,8.71a.66.66,0,0,1,.94,0l1,1a7.65,7.65,0,0,1,2.86-1.19V7.1a.69.69,0,0,1,.68-.67h1.77A.69.69,0,0,1,18,7.1V8.56a7.65,7.65,0,0,1,2.86,1.19l1-1A.66.66,0,0,1,22.85,8.71Zm-1.72,7.62a4.63,4.63,0,1,0-4.63,4.61A4.63,4.63,0,0,0,21.13,16.33Z"/><path id="Path" class="cls-2" d="M29.46,14.1a12.91,12.91,0,0,1-2.55,10.27,13.14,13.14,0,0,1-9.27,5.08c.11,1.08.21,2.12.26,3.16,8-.26,16.55-8.3,14.78-19.13C31.64,13.74,30.55,13.89,29.46,14.1Z"/><path class="cls-3" d="M3.28,17.52c-1,.11-2.08.16-3.12.26A16.23,16.23,0,0,0,15,32.66c.1-1.09.21-2.13.26-3.16C8.43,28.41,4.48,24.42,3.28,17.52Z"/><path class="cls-2" d="M8.07,2.34C13-.57,18.16-.67,23.42,1.51c-.47,1-.94,2-1.41,3A13.26,13.26,0,0,0,3.28,15.24C2.19,15.14,1.14,15,0,15,.73,9.44,3.33,5.13,8.07,2.34Z"/><path class="cls-3" d="M25.92,3c-.63.88-1.25,1.76-1.88,2.69A13,13,0,0,1,26.91,8.4a12.3,12.3,0,0,1,1.92,3.53c1-.37,2-.73,3.07-1.15A16.15,16.15,0,0,0,25.92,3Z"/></g></g></g></g></g></g></g></svg>